<?xml version="1.0" standalone="no"?>
<!DOCTYPE svg PUBLIC "-//W3C//DTD SVG 20010904//EN"
 "http://www.w3.org/TR/2001/REC-SVG-20010904/DTD/svg10.dtd">
<svg version="1.0" xmlns="http://www.w3.org/2000/svg"
 width="676.000000pt" height="676.000000pt" viewBox="0 0 676.000000 676.000000"
 preserveAspectRatio="xMidYMid meet">
<metadata>
Created by potrace 1.14, written by Peter Selinger 2001-2017
</metadata>
<g transform="translate(0.000000,676.000000) scale(0.100000,-0.100000)"
fill="#000000" stroke="none">
<path d="M3920 5908 c0 -4 -10 -8 -22 -10 -14 -2 -46 -33 -85 -83 -35 -44 -76
-95 -92 -112 -15 -18 -26 -34 -25 -36 2 -2 -11 -20 -30 -40 -19 -20 -31 -37
-27 -37 3 -1 -4 -9 -17 -20 -13 -10 -23 -21 -22 -24 0 -12 -72 -106 -82 -106
-5 0 -7 -4 -4 -8 3 -5 -10 -25 -28 -45 -18 -20 -32 -38 -30 -40 2 -2 -11 -20
-30 -40 -18 -20 -32 -38 -30 -40 2 -2 -11 -20 -30 -40 -19 -20 -31 -37 -27
-37 3 -1 -4 -9 -17 -20 -13 -10 -23 -23 -23 -27 -1 -10 -36 -57 -66 -90 -13
-13 -22 -26 -22 -29 1 -3 -9 -17 -20 -30 -12 -14 -38 -47 -57 -75 -20 -27 -41
-49 -47 -49 -6 0 -7 -3 -4 -6 5 -6 -31 -59 -68 -100 -5 -7 -57 -75 -114 -153
-58 -77 -108 -141 -113 -141 -4 0 -8 -5 -8 -11 0 -6 -15 -30 -32 -53 -18 -22
-37 -47 -43 -54 -5 -8 -20 -24 -31 -37 -12 -13 -19 -26 -17 -29 3 -3 -2 -8
-11 -12 -9 -3 -14 -10 -11 -14 3 -4 -1 -13 -9 -19 -12 -10 -14 108 -15 771 -1
431 -3 795 -4 810 -3 34 -66 78 -117 79 -67 1 -1055 -1 -1072 -3 -31 -3 -77
-51 -84 -88 -11 -65 -7 -4933 4 -4962 11 -26 40 -48 72 -55 17 -4 1085 -5
1115 -1 29 4 86 63 79 82 -3 9 -2 16 2 16 5 0 8 264 8 587 l-1 588 41 52 c22
29 44 53 49 53 4 0 6 4 3 8 -3 4 10 25 29 45 19 20 31 37 27 37 -4 1 3 9 16
20 13 10 22 22 22 25 0 3 10 20 24 38 21 27 26 29 32 14 3 -9 4 -24 0 -32 -3
-8 0 -15 5 -15 7 0 9 -11 7 -25 -3 -14 -2 -25 3 -25 4 0 8 -8 8 -18 0 -9 3
-33 7 -52 3 -19 7 -48 8 -65 0 -16 4 -32 8 -35 4 -4 9 -26 10 -50 2 -25 6 -47
9 -50 4 -3 9 -28 12 -55 3 -28 8 -57 11 -65 3 -8 8 -33 10 -55 3 -22 5 -40 7
-40 3 0 10 -47 12 -82 1 -18 5 -33 9 -33 4 0 7 -8 6 -17 0 -10 3 -29 6 -43 4
-14 8 -41 11 -60 2 -19 5 -37 6 -40 1 -3 3 -9 4 -15 1 -5 4 -23 8 -40 4 -16 9
-48 13 -70 3 -22 8 -51 10 -65 3 -14 6 -38 7 -55 1 -16 5 -32 9 -35 4 -3 9
-25 13 -50 3 -25 9 -61 12 -80 3 -19 6 -44 7 -55 0 -11 4 -22 8 -26 4 -3 10
-25 12 -50 2 -24 6 -51 9 -59 3 -8 6 -22 6 -30 2 -45 7 -76 13 -81 5 -3 9 -17
10 -32 1 -15 5 -27 8 -27 4 0 13 -11 20 -25 7 -14 16 -23 18 -20 3 3 10 1 16
-4 6 -4 34 -14 61 -21 28 -7 55 -16 60 -19 6 -3 12 -6 15 -6 31 -4 110 -31
110 -37 0 -5 4 -7 8 -4 10 6 82 -14 82 -23 0 -3 15 -7 32 -8 18 -2 34 -7 36
-12 2 -6 10 -7 18 -4 8 3 14 0 14 -7 0 -6 4 -9 9 -6 5 4 22 1 38 -5 15 -6 39
-13 53 -16 13 -2 27 -7 30 -11 3 -4 10 -7 15 -7 27 -1 75 -18 75 -26 0 -6 4
-8 9 -5 8 5 43 -3 91 -21 8 -3 22 -7 31 -9 9 -2 29 -9 45 -15 16 -7 32 -13 37
-14 4 -2 10 -4 15 -5 4 -1 12 -3 17 -4 15 -3 157 -46 185 -56 14 -6 44 -12 68
-15 24 -3 46 -6 50 -7 27 -5 111 51 104 70 -2 7 1 26 6 42 6 16 7 32 3 35 -5
2 -8 16 -8 29 0 22 3 24 40 19 23 -2 46 -7 51 -11 10 -6 34 -11 66 -13 8 -1
20 -5 25 -8 29 -18 120 3 155 35 23 21 26 31 23 83 l-2 59 37 -4 c90 -11 209
-6 240 10 31 16 59 52 54 70 -2 4 0 16 3 26 5 15 17 19 73 19 93 0 103 2 135
33 27 28 30 41 27 110 -1 33 -35 111 -76 172 -9 14 -13 26 -9 26 3 0 -1 7 -9
16 -9 8 -14 20 -11 25 4 5 1 9 -5 9 -6 0 -17 15 -25 32 -8 18 -23 46 -34 62
-11 17 -18 33 -15 38 3 4 1 8 -3 8 -12 0 -44 56 -36 64 3 3 1 6 -5 6 -7 0 -12
5 -12 12 0 6 -6 19 -14 27 -7 9 -31 50 -52 91 -22 41 -45 81 -52 88 -7 8 -10
18 -7 23 4 5 1 9 -5 9 -6 0 -8 4 -5 10 3 5 2 10 -3 10 -5 0 -22 26 -38 57 -16
32 -35 64 -42 71 -7 7 -10 18 -7 23 4 5 3 9 -2 9 -12 0 -64 96 -56 104 3 3 1
6 -5 6 -14 0 -44 55 -35 64 4 3 1 6 -5 6 -7 0 -12 7 -12 15 0 8 -4 15 -9 15
-5 0 -15 15 -22 33 -7 17 -23 47 -36 66 -12 18 -20 37 -17 42 3 5 1 9 -4 9 -6
0 -20 19 -32 43 -19 38 -62 115 -98 175 -7 12 -10 22 -7 22 3 0 -3 10 -15 22
-11 12 -20 26 -20 30 0 5 -11 26 -24 47 -14 21 -22 42 -19 45 4 3 1 6 -5 6 -7
0 -12 5 -12 11 0 6 -9 24 -21 40 -11 16 -17 29 -12 29 4 0 3 4 -4 8 -6 4 -13
14 -15 22 -2 8 -11 23 -20 34 -10 10 -15 23 -12 28 3 4 0 8 -5 8 -6 0 -11 5
-11 12 0 6 -6 19 -14 27 -7 9 -30 48 -51 86 -20 39 -47 88 -60 110 -13 21 -21
43 -19 47 3 4 1 8 -4 8 -4 0 -18 18 -31 40 -12 22 -19 40 -15 40 4 0 0 6 -9
13 -9 6 -17 19 -19 27 -2 8 -9 21 -16 28 -7 8 -10 17 -7 22 3 4 -2 10 -10 14
-8 3 -15 10 -15 17 0 6 -9 24 -21 40 -11 16 -17 29 -12 29 4 0 3 4 -3 8 -5 4
-18 23 -28 42 -10 19 -28 53 -41 75 -48 79 -55 95 -48 95 5 0 3 4 -3 8 -18 11
-62 96 -57 110 3 7 22 12 45 12 24 0 51 8 69 21 16 11 29 17 29 12 0 -4 4 -3
8 3 9 15 161 124 172 124 4 0 10 3 12 8 5 12 78 64 78 55 0 -4 5 0 11 10 6 9
14 15 20 12 5 -4 9 -2 9 2 0 9 85 73 96 73 3 0 11 6 19 13 24 23 68 52 73 49
3 -2 9 3 14 12 5 9 13 16 18 16 6 0 20 9 32 20 13 10 27 21 33 22 5 2 20 13
34 26 13 12 28 22 33 22 5 0 16 6 23 13 33 29 45 37 55 37 5 0 10 4 10 9 0 10
112 86 123 83 4 -1 7 2 7 7 0 9 64 51 76 50 3 0 13 8 22 18 22 23 77 62 93 65
8 2 21 12 31 23 9 11 17 17 18 13 0 -4 14 6 32 22 17 16 35 27 39 25 4 -3 10
2 13 11 3 8 10 13 15 10 5 -3 11 1 15 9 3 8 10 15 15 15 6 0 22 11 37 25 14
13 30 22 34 20 5 -3 10 -2 12 2 7 16 96 82 102 76 3 -4 6 -2 6 4 0 11 141 109
153 105 4 -1 7 2 7 7 0 9 116 91 129 91 5 0 11 4 13 8 4 12 138 104 138 96 0
-6 24 20 47 51 13 18 20 83 12 114 -9 34 -66 80 -108 87 -76 13 -129 45 -105
63 19 13 22 83 6 123 -12 30 -61 60 -107 64 -16 2 -41 6 -55 9 -14 4 -32 8
-40 9 -38 6 -50 18 -39 37 5 10 8 19 5 19 -3 0 -1 14 4 30 5 19 5 30 -1 30 -6
0 -8 4 -5 9 8 12 -42 71 -60 71 -8 0 -14 3 -14 8 0 4 -29 7 -64 6 -71 -1 -93
6 -80 27 4 8 8 32 9 54 0 45 -35 95 -67 95 -10 0 -18 3 -18 8 0 4 -313 7 -695
7 -382 0 -695 -3 -695 -7z"/>
</g>
</svg>
